<?xml version="1.0" encoding="UTF-8"?>
<svg id="svg" version="1.1" xmlns="http://www.w3.org/2000/svg" style="display: block;" viewBox="0 0 750 750"><path d="M0 0 C1.69811142 -0.00302759 3.39622148 -0.0069201 5.09432918 -0.01159257 C9.71929897 -0.02180319 14.34419064 -0.01970859 18.96916664 -0.01541197 C23.97343062 -0.01293202 28.9776764 -0.02197464 33.98193359 -0.02944946 C43.77040084 -0.04216381 53.55884062 -0.0439942 63.34731474 -0.0416492 C71.30922176 -0.03986205 79.27112048 -0.04162417 87.2330265 -0.04587364 C88.93648954 -0.04676643 88.93648954 -0.04676643 90.67436597 -0.04767724 C92.98187234 -0.04888907 95.2893787 -0.05010321 97.59688506 -0.05131962 C119.211307 -0.0621828 140.82571331 -0.06003859 162.44013611 -0.05393478 C182.18092922 -0.04876793 201.92167295 -0.06001712 221.6624563 -0.07903299 C241.96709523 -0.09844097 262.27171083 -0.10666213 282.57635909 -0.10290974 C293.96185895 -0.10100203 305.34731681 -0.10344312 316.73280907 -0.11762428 C326.42665363 -0.12957691 336.12043032 -0.1308997 345.81427588 -0.11883412 C350.75247672 -0.11297231 355.69055367 -0.11177061 360.62874603 -0.12383652 C398.72316664 -0.2105957 398.72316664 -0.2105957 414.68965149 3.26069641 C415.88514964 3.52014384 417.08064779 3.77959127 418.31237316 4.04690075 C421.24106759 4.71915216 424.11571112 5.48894353 427.00215149 6.32319641 C428.03920227 6.61992249 429.07625305 6.91664856 430.14472961 7.22236633 C459.78218835 16.05833701 485.52535667 31.87246233 507.68965149 53.26069641 C509.03929993 54.51559875 509.03929993 54.51559875 510.41621399 55.79585266 C534.50280204 78.80652683 550.85086666 110.38748428 559.00215149 142.44819641 C559.24465637 143.39694641 559.48716125 144.34569641 559.73701477 145.32319641 C563.06637903 159.08300007 563.9863976 172.48902991 563.9503479 186.57104492 C563.95337549 188.26915635 563.957268 189.96726641 563.96194047 191.6653741 C563.97215109 196.29034389 563.97005649 200.91523556 563.96575987 205.54021156 C563.96327992 210.54447554 563.97232255 215.54872132 563.97979736 220.55297852 C563.99251171 230.34144577 563.9943421 240.12988554 563.9919971 249.91835966 C563.99020995 257.88026668 563.99197207 265.8421654 563.99622154 273.80407143 C563.99681673 274.93971345 563.99741192 276.07535547 563.99802515 277.24541089 C563.99923697 279.55291726 564.00045111 281.86042362 564.00166752 284.16792998 C564.0125307 305.78235192 564.01038649 327.39675823 564.00428268 349.01118103 C563.99911583 368.75197414 564.01036502 388.49271787 564.0293809 408.23350122 C564.04878887 428.53814015 564.05701003 448.84275575 564.05325764 469.14740402 C564.05134993 480.53290388 564.05379102 491.91836173 564.06797218 503.30385399 C564.07992481 512.99769855 564.0812476 522.69147525 564.06918202 532.38532081 C564.06332021 537.32352164 564.06211851 542.26159859 564.07418442 547.19979095 C564.1609436 585.29421156 564.1609436 585.29421156 560.68965149 601.26069641 C560.43020406 602.45619456 560.17075663 603.65169271 559.90344715 604.88341808 C559.23119574 607.81211251 558.46140437 610.68675604 557.62715149 613.57319641 C557.33042542 614.61024719 557.03369934 615.64729797 556.72798157 616.71577454 C547.89201089 646.35323327 532.07788557 672.09640159 510.68965149 694.26069641 C509.85304993 695.16046204 509.01644836 696.06022766 508.15449524 696.98725891 C485.14382107 721.07384696 453.56286362 737.42191158 421.50215149 745.57319641 C420.55340149 745.81570129 419.60465149 746.05820618 418.62715149 746.30805969 C404.86734783 749.63742395 391.46131799 750.55744252 377.37930298 750.52139282 C375.68119155 750.52442041 373.98308149 750.52831292 372.2849738 750.53298539 C367.66000401 750.54319601 363.03511234 750.54110141 358.41013634 750.5368048 C353.40587236 750.53432484 348.40162658 750.54336747 343.39736938 750.55084229 C333.60890213 750.56355664 323.82046236 750.56538702 314.03198824 750.56304202 C306.07008122 750.56125488 298.1081825 750.56301699 290.14627647 750.56726646 C289.01063445 750.56786165 287.87499243 750.56845684 286.70493701 750.56907007 C284.39743064 750.57028189 282.08992428 750.57149603 279.78241792 750.57271244 C258.16799598 750.58357562 236.55358967 750.58143141 214.93916687 750.5753276 C195.19837376 750.57016076 175.45763003 750.58140994 155.71684668 750.60042582 C135.41220775 750.6198338 115.10759215 750.62805495 94.80294389 750.62430257 C83.41744403 750.62239486 72.03198617 750.62483594 60.64649391 750.63901711 C50.95264935 750.65096973 41.25887265 750.65229253 31.5650271 750.64022694 C26.62682626 750.63436513 21.68874931 750.63316344 16.75055695 750.64522934 C-21.34386366 750.73198852 -21.34386366 750.73198852 -37.31034851 747.26069641 C-38.50584666 747.00124898 -39.70134481 746.74180155 -40.93307018 746.47449207 C-43.86176461 745.80224066 -46.73640814 745.03244929 -49.62284851 744.19819641 C-50.65989929 743.90147034 -51.69695007 743.60474426 -52.76542664 743.29902649 C-82.40288537 734.46305581 -108.14605369 718.64893049 -130.31034851 697.26069641 C-131.21011414 696.42409485 -132.10987976 695.58749329 -133.03691101 694.72554016 C-157.12349906 671.71486599 -173.47156368 640.13390854 -181.62284851 608.07319641 C-181.98660583 606.65007141 -181.98660583 606.65007141 -182.35771179 605.19819641 C-185.68707605 591.43839275 -186.60709462 578.03236291 -186.57104492 563.9503479 C-186.57407251 562.25223648 -186.57796502 560.55412642 -186.58263749 558.85601872 C-186.59284811 554.23104893 -186.59075351 549.60615726 -186.58645689 544.98118126 C-186.58397694 539.97691728 -186.59301957 534.9726715 -186.60049438 529.96841431 C-186.61320874 520.17994706 -186.61503912 510.39150728 -186.61269412 500.60303316 C-186.61090698 492.64112614 -186.61266909 484.67922742 -186.61691856 476.7173214 C-186.61751375 475.58167937 -186.61810894 474.44603735 -186.61872217 473.27598193 C-186.61993399 470.96847556 -186.62114813 468.6609692 -186.62236454 466.35346284 C-186.63322772 444.73904091 -186.63108351 423.12463459 -186.6249797 401.51021179 C-186.61981286 381.76941868 -186.63106204 362.02867495 -186.65007792 342.2878916 C-186.6694859 321.98325267 -186.67770705 301.67863707 -186.67395467 281.37398881 C-186.67204695 269.98848895 -186.67448804 258.60303109 -186.6886692 247.21753883 C-186.70062183 237.52369427 -186.70194462 227.82991758 -186.68987904 218.13607202 C-186.68401723 213.19787118 -186.68281554 208.25979423 -186.69488144 203.32160187 C-186.78164062 165.22718126 -186.78164062 165.22718126 -183.31034851 149.26069641 C-183.05090108 148.06519826 -182.79145365 146.86970011 -182.52414417 145.63797474 C-181.85189276 142.70928031 -181.08210139 139.83463678 -180.24784851 136.94819641 C-179.95112244 135.91114563 -179.65439636 134.87409485 -179.34867859 133.80561829 C-170.51270791 104.16815956 -154.69858259 78.42499123 -133.31034851 56.26069641 C-132.47374695 55.36093079 -131.63714539 54.46116516 -130.77519226 53.53413391 C-107.76451809 29.44754586 -76.18356064 13.09948124 -44.12284851 4.94819641 C-43.17409851 4.70569153 -42.22534851 4.46318665 -41.24784851 4.21333313 C-27.48804485 0.88396887 -14.08201501 -0.0360497 0 0 Z " transform="translate(186.3103485107422,-0.2606964111328125)" style="fill: #1F9B5D;"/><path d="M0 0 C0.89530426 0.00209473 1.79060852 0.00418945 2.71304321 0.00634766 C31.97653626 0.14698275 58.32616143 7.49276329 84 21.5 C85.01835937 22.04011719 86.03671875 22.58023438 87.0859375 23.13671875 C100.75164074 30.70231585 112.79276613 40.69723773 124 51.5 C124.70253906 52.15097656 125.40507813 52.80195313 126.12890625 53.47265625 C156.54981155 82.41860856 176.02670438 126.35506758 177.29058838 168.15925598 C177.36774833 172.00237731 177.38436921 175.84369496 177.375 179.6875 C177.37478851 180.4950473 177.37457703 181.3025946 177.37435913 182.13461304 C177.34092678 194.96709028 176.43919415 207.07847345 173 219.5 C172.82339844 220.1811084 172.64679688 220.8622168 172.46484375 221.56396484 C167.70334591 239.71497096 159.81057531 257.17408197 149 272.5 C148.58556641 273.08797363 148.17113281 273.67594727 147.74414062 274.28173828 C123.79039476 307.62201014 87.40333443 330.57985272 47.00708008 337.91088867 C24.48335454 341.51898376 0.0948599 341.19925905 -22 335.5 C-22.85867676 335.28037598 -23.71735352 335.06075195 -24.60205078 334.83447266 C-56.03629158 326.5586049 -82.73407918 309.99253841 -106 287.5 C-106.72445312 286.82710938 -107.44890625 286.15421875 -108.1953125 285.4609375 C-127.13451361 267.44185952 -139.99941321 243.75799175 -149 219.5 C-149.44214844 218.32179688 -149.88429688 217.14359375 -150.33984375 215.9296875 C-165.05565028 174.51073052 -161.76732332 127.67215192 -142.96875 88.109375 C-135.04861285 72.2071392 -124.59791447 57.99478812 -112 45.5 C-111.51563477 45.01837402 -111.03126953 44.53674805 -110.53222656 44.04052734 C-92.50109983 26.34063374 -70.61465998 14.15503416 -46.6875 6.3125 C-45.97811279 6.07442627 -45.26872559 5.83635254 -44.5378418 5.59106445 C-29.90103706 0.98548334 -15.24245599 -0.08227185 0 0 Z " transform="translate(419,108.5)" style="fill: #D9C7BC;"/><path d="M0 0 C2.67265646 3.7145612 4.88056566 7.73826433 7.1875 11.6875 C7.85458984 12.79029297 8.52167969 13.89308594 9.20898438 15.02929688 C9.83482422 16.09599609 10.46066406 17.16269531 11.10546875 18.26171875 C11.68449951 19.24100342 12.26353027 20.22028809 12.86010742 21.22924805 C14.16894826 24.41066477 14.18454676 25.80003793 13 29 C10.4453125 31.0703125 10.4453125 31.0703125 7.125 33.125 C-5.86562754 41.58464049 -15.65118247 52.52506809 -20.31640625 67.52734375 C-22.38394147 78.03042268 -21.30123693 89.45068629 -20 100 C-17.85297673 99.21586703 -17.85297673 99.21586703 -17.39453125 97.28515625 C-17.20246094 96.55167969 -17.01039063 95.81820312 -16.8125 95.0625 C-13.50765486 84.66876203 -6.02435423 76.18244028 3.515625 71.05078125 C15.62578745 64.80586842 27.35896685 62.75654996 40.89453125 65.90625 C47.52883151 68.36164938 53.37086989 71.74074 59 76 C59.99 76.70125 60.98 77.4025 62 78.125 C72.97891309 87.73913107 83.2342812 105.37223154 85 120 C86.27229988 139.80066699 84.05069171 156.47509899 70.9375 172.25 C60.215363 183.46448002 44.83863501 191.61875936 29.27734375 192.23828125 C9.08007768 192.66126064 -5.7475086 187.50236683 -20.671875 173.32421875 C-21.44015625 172.55722656 -22.2084375 171.79023438 -23 171 C-24.12148438 169.89591797 -24.12148438 169.89591797 -25.265625 168.76953125 C-39.41381249 154.00297892 -48.41052048 134.48041321 -54 115 C-54.26111572 114.13834229 -54.52223145 113.27668457 -54.79125977 112.38891602 C-57.05956013 104.30940123 -57.50420311 96.67867086 -57.4375 88.3125 C-57.43065186 86.99266113 -57.42380371 85.67282227 -57.41674805 84.31298828 C-57.25329182 74.35011727 -56.22384758 65.41786292 -53 56 C-52.63777344 54.92363281 -52.27554687 53.84726563 -51.90234375 52.73828125 C-47.39158516 40.79623901 -39.73734723 31.14300978 -31 22 C-30.4225 21.34773438 -29.845 20.69546875 -29.25 20.0234375 C-23.30177515 13.57067572 -9.33403147 0 0 0 Z " transform="translate(418,137)" style="fill: #020101;"/><path d="M0 0 C11.0059375 1.10374731 20.18242011 8.44190872 27.2109375 16.55078125 C41.38804109 34.42941529 46.45115303 52.34071144 45 75 C43.39305147 88.46362284 36.07096056 101.04637974 26 110 C13.06536414 120.00550983 -0.12419724 125.17608033 -16.5 125.1875 C-17.42425781 125.19974609 -18.34851563 125.21199219 -19.30078125 125.22460938 C-24.27586261 125.23528552 -28.33685537 124.96629265 -33 123 C-31.61400866 115.58068882 -29.86233001 108.29655755 -27.9375 101 C-27.66873047 99.96488281 -27.39996094 98.92976563 -27.12304688 97.86328125 C-25.13061255 90.2612251 -25.13061255 90.2612251 -24 88 C-23.34 88.28875 -22.68 88.5775 -22 88.875 C-15.58960115 91.27889957 -8.87240162 93.20698093 -2 92 C1.7394501 90.27956858 4.29258294 88.40059081 6.1640625 84.6953125 C9.33651395 74.46638024 6.3390362 64.39180419 2 55 C0.20398505 51.81678169 -1.77050929 48.89281027 -4 46 C-4.7425 45.01 -5.485 44.02 -6.25 43 C-7.84924803 40.9176123 -7.84924803 40.9176123 -10 40 C-9.45280154 32.27082181 -7.59586433 25.00950134 -5.56152344 17.55859375 C-4.99415793 15.47858248 -4.43778675 13.39584799 -3.8828125 11.3125 C-1.1463676 1.1463676 -1.1463676 1.1463676 0 0 Z " transform="translate(458,204)" style="fill: #010101;"/><path d="M0 0 C3.46725961 1.1557532 3.71790649 1.71152851 5.48046875 4.74609375 C5.92197266 5.50083984 6.36347656 6.25558594 6.81835938 7.03320312 C7.27017578 7.82662109 7.72199219 8.62003906 8.1875 9.4375 C8.65091797 10.22705078 9.11433594 11.01660156 9.59179688 11.83007812 C13 17.71788706 13 17.71788706 13 20 C12.51982422 20.25990723 12.03964844 20.51981445 11.54492188 20.78759766 C-0.666835 27.41330864 -12.71571235 34.28337291 -24.69921875 41.3125 C-32.35014182 45.79905605 -40.03853711 50.22012295 -47.72705078 54.6418457 C-52.61667493 57.45745614 -57.49805999 60.2838557 -62.34765625 63.16796875 C-63.14308838 63.64073242 -63.93852051 64.11349609 -64.75805664 64.60058594 C-66.20885522 65.46572511 -67.65742137 66.33462372 -69.10327148 67.20800781 C-73.78208669 70 -73.78208669 70 -76 70 C-77.70400669 67.07178145 -79.38524739 64.131112 -81.0625 61.1875 C-81.54783203 60.35412109 -82.03316406 59.52074219 -82.53320312 58.66210938 C-82.98759766 57.85966797 -83.44199219 57.05722656 -83.91015625 56.23046875 C-84.33433838 55.49207764 -84.75852051 54.75368652 -85.19555664 53.99291992 C-86 52 -86 52 -85 49 C-82.50433944 47.44517598 -80.0354421 46.05191666 -77.4375 44.6875 C-75.7786002 43.79155341 -74.12111882 42.89297701 -72.46484375 41.9921875 C-71.57651855 41.50975586 -70.68819336 41.02732422 -69.77294922 40.53027344 C-64.96521965 37.87709075 -60.23516149 35.09251059 -55.5 32.3125 C-45.78194505 26.6182172 -36.03955768 20.9682664 -26.27124023 15.3605957 C-21.38243504 12.54961641 -16.50932719 9.72152969 -11.6875 6.796875 C-10.50111938 6.08096191 -10.50111938 6.08096191 -9.29077148 5.35058594 C-7.84997182 4.47729748 -6.41418104 3.59566713 -4.98461914 2.70410156 C-3.36728758 1.72562538 -1.68773211 0.85131506 0 0 Z " transform="translate(529,322)" style="fill: #030302;"/><path d="M0 0 C12.01735457 7.12421231 18.11669361 17.67155858 23.1640625 30.41015625 C24.41776842 37.1345789 24.78947919 44.00804832 22.7890625 50.59765625 C19.76527138 54.49932221 16.69588391 57.60232559 11.67578125 58.4765625 C1.0082332 58.75292385 -5.51410607 55.33082058 -13.1484375 48.09765625 C-21.07255556 39.85039153 -27.33639574 29.9501313 -27.8359375 18.28515625 C-27.48254287 11.47203658 -25.35384211 7.29504735 -20.5859375 2.5390625 C-14.54749557 -2.78986251 -7.22327674 -3.54567237 0 0 Z " transform="translate(442.1484375,238.90234375)" style="fill: #D6C5BA;"/></svg>
