<?xml version="1.0" encoding="UTF-8" standalone="no"?>
<svg
   width="32"
   height="32"
   viewBox="0 0 32 32"
   fill="none"
   class="icon-2xl"
   version="1.1"
   id="svg1"
   sodipodi:docname="arrow.svg"
   inkscape:version="1.4 (e7c3feb100, 2024-10-09)"
   xmlns:inkscape="http://www.inkscape.org/namespaces/inkscape"
   xmlns:sodipodi="http://sodipodi.sourceforge.net/DTD/sodipodi-0.dtd"
   xmlns="http://www.w3.org/2000/svg"
   xmlns:svg="http://www.w3.org/2000/svg">
  <defs
     id="defs1" />
  <sodipodi:namedview
     id="namedview1"
     pagecolor="#ececec"
     bordercolor="#000000"
     borderopacity="0.25"
     inkscape:showpageshadow="2"
     inkscape:pageopacity="0.0"
     inkscape:pagecheckerboard="0"
     inkscape:deskcolor="#d1d1d1"
     inkscape:zoom="14.390625"
     inkscape:cx="15.878393"
     inkscape:cy="8.0955483"
     inkscape:window-width="1600"
     inkscape:window-height="1172"
     inkscape:window-x="0"
     inkscape:window-y="0"
     inkscape:window-maximized="1"
     inkscape:current-layer="svg1" />
  <path
     style="fill:#ececec;stroke-width:0.0694897"
     d="M 15.044517,31.921502 C 8.5913781,31.557089 2.8918961,27.181587 0.87139009,21.040766 -0.84399816,15.827274 0.15117225,10.280307 3.5678765,6.0108578 5.0149729,4.2025933 6.8502869,2.7351754 8.9641694,1.6962736 10.103232,1.1364631 10.982965,0.80930342 12.110603,0.52616213 18.05673,-0.9668653 24.315551,1.0776922 28.262242,5.8023887 c 1.90369,2.2789608 3.178557,5.1999663 3.563617,8.1650383 0.126662,0.97534 0.14257,2.936738 0.03139,3.870693 -0.748952,6.291658 -5.188119,11.605707 -11.218816,13.429846 -1.817422,0.549727 -3.647018,0.763478 -5.593919,0.653536 z"
     id="path3" />
    <path
     fill-rule="evenodd"
     clip-rule="evenodd"
     d="M15.1918 8.90615C15.6381 8.45983 16.3618 8.45983 16.8081 8.90615L21.9509 14.049C22.3972 14.4953 22.3972 15.2189 21.9509 15.6652C21.5046 16.1116 20.781 16.1116 20.3347 15.6652L17.1428 12.4734V22.2857C17.1428 22.9169 16.6311 23.4286 15.9999 23.4286C15.3688 23.4286 14.8571 22.9169 14.8571 22.2857V12.4734L11.6652 15.6652C11.2189 16.1116 10.4953 16.1116 10.049 15.6652C9.60265 15.2189 9.60265 14.4953 10.049 14.049L15.1918 8.90615Z"
     fill="#000000"
     id="path1" />
</svg>
