<?xml version="1.0" encoding="UTF-8"?>
<svg id="svg" version="1.1" xmlns="http://www.w3.org/2000/svg" style="display: block;" viewBox="0 0 750 750"><path d="M0 0 C1.10627243 -0.00701431 2.21254486 -0.01402863 3.3523407 -0.02125549 C6.90160238 -0.03865803 10.45069723 -0.04510749 14 -0.046875 C15.21241364 -0.04754974 16.42482727 -0.04822449 17.67398071 -0.04891968 C35.32119877 -0.03329711 52.55666894 0.3168385 70 3.203125 C71.10617676 3.38004883 72.21235352 3.55697266 73.35205078 3.73925781 C137.29958787 14.17636112 197.28550663 39.69960345 248 80.203125 C249.39412109 81.30720703 249.39412109 81.30720703 250.81640625 82.43359375 C256.78820508 87.23311913 262.46714766 92.2901984 268.078125 97.5 C270.79693008 100.01525817 273.54706969 102.48937799 276.3125 104.953125 C282.3120158 110.34885567 287.88189394 115.95063874 293.140625 122.0703125 C294.39837046 123.51302052 295.6806258 124.93466376 296.984375 126.3359375 C304.2563667 134.16527163 310.63112993 142.63781642 317 151.203125 C317.45020508 151.80672852 317.90041016 152.41033203 318.36425781 153.03222656 C361.79908238 211.58063135 389.91527905 286.19514193 390.203125 359.578125 C390.20882507 360.74150391 390.21452515 361.90488281 390.22039795 363.10351562 C390.22979688 365.56086332 390.23636146 368.01822332 390.24023438 370.47558594 C390.24982836 374.13761097 390.28085525 377.79904638 390.3125 381.4609375 C390.40667299 402.38850336 388.75971991 423.14054755 384.75 443.703125 C384.43421997 445.34982178 384.43421997 445.34982178 384.11206055 447.02978516 C367.27900653 532.15815547 320.7397311 613.27025504 252 667.203125 C250.71044048 668.24547916 249.42142082 669.28850141 248.1328125 670.33203125 C215.65197061 696.38857979 178.3549496 716.69494341 139 730.203125 C137.48889648 730.72664551 137.48889648 730.72664551 135.94726562 731.26074219 C116.07690782 738.07900222 95.91626656 743.0501849 75.1875 746.453125 C74.27162109 746.60426758 73.35574219 746.75541016 72.41210938 746.91113281 C53.44906957 749.83410659 34.60166887 750.57810995 15.4375 750.515625 C13.65010406 750.51239227 13.65010406 750.51239227 11.82659912 750.50909424 C-5.62774011 750.45845614 -22.74744907 750.08154316 -40 747.203125 C-41.26279785 746.99913086 -42.5255957 746.79513672 -43.82666016 746.58496094 C-133.94346326 731.84258303 -220.20389796 684.59216687 -277 612.203125 C-278.04235416 610.91356548 -279.08537641 609.62454582 -280.12890625 608.3359375 C-324.62989157 552.86314661 -351.54542672 484.74637016 -359 414.203125 C-359.08732895 413.38872955 -359.1746579 412.57433411 -359.26463318 411.73526001 C-359.9597477 404.75567702 -360.17562221 397.83964216 -360.203125 390.828125 C-360.20882507 389.66474609 -360.21452515 388.50136719 -360.22039795 387.30273438 C-360.22979688 384.84538668 -360.23636146 382.38802668 -360.24023438 379.93066406 C-360.24982836 376.26863903 -360.28085525 372.60720362 -360.3125 368.9453125 C-360.67818033 287.05741316 -330.97865121 206.03353702 -280 142.203125 C-278.89591797 140.80900391 -278.89591797 140.80900391 -277.76953125 139.38671875 C-272.92677508 133.3611301 -267.8147715 127.64217586 -262.55859375 121.98046875 C-260.4704719 119.71382045 -258.43993504 117.41979609 -256.4375 115.078125 C-249.86912033 107.51977424 -242.61004529 100.69251294 -235 94.203125 C-233.56140625 92.93082031 -233.56140625 92.93082031 -232.09375 91.6328125 C-169.33082835 36.38748156 -84.21533797 0.35927378 0 0 Z " transform="translate(360,-0.203125)" style="fill: #1F9B5D;"/><path d="M0 0 C0.89530426 0.00209473 1.79060852 0.00418945 2.71304321 0.00634766 C31.97653626 0.14698275 58.32616143 7.49276329 84 21.5 C85.01835937 22.04011719 86.03671875 22.58023438 87.0859375 23.13671875 C100.75164074 30.70231585 112.79276613 40.69723773 124 51.5 C124.70253906 52.15097656 125.40507813 52.80195313 126.12890625 53.47265625 C156.54981155 82.41860856 176.02670438 126.35506758 177.29058838 168.15925598 C177.36774833 172.00237731 177.38436921 175.84369496 177.375 179.6875 C177.37478851 180.4950473 177.37457703 181.3025946 177.37435913 182.13461304 C177.34092678 194.96709028 176.43919415 207.07847345 173 219.5 C172.82339844 220.1811084 172.64679688 220.8622168 172.46484375 221.56396484 C167.70334591 239.71497096 159.81057531 257.17408197 149 272.5 C148.58556641 273.08797363 148.17113281 273.67594727 147.74414062 274.28173828 C124.9765696 305.97102027 91.75766455 327.32757465 54 336.5 C53.3296875 336.66516113 52.659375 336.83032227 51.96875 337.00048828 C28.65232245 342.42043671 1.07207246 341.52890615 -22 335.5 C-22.85577637 335.28037598 -23.71155273 335.06075195 -24.59326172 334.83447266 C-56.03199463 326.56050551 -82.73109528 309.99542312 -106 287.5 C-106.72445312 286.82710938 -107.44890625 286.15421875 -108.1953125 285.4609375 C-127.13451361 267.44185952 -139.99941321 243.75799175 -149 219.5 C-149.44214844 218.32179688 -149.88429688 217.14359375 -150.33984375 215.9296875 C-165.04917474 174.52895652 -161.75729746 127.65105189 -142.96875 88.109375 C-135.04861285 72.2071392 -124.59791447 57.99478812 -112 45.5 C-111.51563477 45.01837402 -111.03126953 44.53674805 -110.53222656 44.04052734 C-92.50109983 26.34063374 -70.61465998 14.15503416 -46.6875 6.3125 C-45.97811279 6.07442627 -45.26872559 5.83635254 -44.5378418 5.59106445 C-29.90103706 0.98548334 -15.24245599 -0.08227185 0 0 Z " transform="translate(419,108.5)" style="fill: #D9C7BC;"/><path d="M0 0 C2.67265646 3.7145612 4.88056566 7.73826433 7.1875 11.6875 C7.85458984 12.79029297 8.52167969 13.89308594 9.20898438 15.02929688 C9.83482422 16.09599609 10.46066406 17.16269531 11.10546875 18.26171875 C11.68449951 19.24100342 12.26353027 20.22028809 12.86010742 21.22924805 C14.16894826 24.41066477 14.18454676 25.80003793 13 29 C10.4453125 31.0703125 10.4453125 31.0703125 7.125 33.125 C-5.86562754 41.58464049 -15.65118247 52.52506809 -20.31640625 67.52734375 C-22.38394147 78.03042268 -21.30123693 89.45068629 -20 100 C-17.85297673 99.21586703 -17.85297673 99.21586703 -17.39453125 97.28515625 C-17.20246094 96.55167969 -17.01039063 95.81820312 -16.8125 95.0625 C-13.50765486 84.66876203 -6.02435423 76.18244028 3.515625 71.05078125 C15.62578745 64.80586842 27.35896685 62.75654996 40.89453125 65.90625 C47.52883151 68.36164938 53.37086989 71.74074 59 76 C59.99 76.70125 60.98 77.4025 62 78.125 C72.97891309 87.73913107 83.2342812 105.37223154 85 120 C86.27229988 139.80066699 84.05069171 156.47509899 70.9375 172.25 C60.215363 183.46448002 44.83863501 191.61875936 29.27734375 192.23828125 C9.08007768 192.66126064 -5.7475086 187.50236683 -20.671875 173.32421875 C-21.44015625 172.55722656 -22.2084375 171.79023438 -23 171 C-24.12148438 169.89591797 -24.12148438 169.89591797 -25.265625 168.76953125 C-39.41381249 154.00297892 -48.41052048 134.48041321 -54 115 C-54.26111572 114.13834229 -54.52223145 113.27668457 -54.79125977 112.38891602 C-57.05956013 104.30940123 -57.50420311 96.67867086 -57.4375 88.3125 C-57.43065186 86.99266113 -57.42380371 85.67282227 -57.41674805 84.31298828 C-57.25329182 74.35011727 -56.22384758 65.41786292 -53 56 C-52.63777344 54.92363281 -52.27554687 53.84726563 -51.90234375 52.73828125 C-47.39158516 40.79623901 -39.73734723 31.14300978 -31 22 C-30.4225 21.34773438 -29.845 20.69546875 -29.25 20.0234375 C-23.30177515 13.57067572 -9.33403147 0 0 0 Z " transform="translate(418,137)" style="fill: #020101;"/><path d="M0 0 C11.0059375 1.10374731 20.18242011 8.44190872 27.2109375 16.55078125 C41.38804109 34.42941529 46.45115303 52.34071144 45 75 C43.39305147 88.46362284 36.07096056 101.04637974 26 110 C13.06536414 120.00550983 -0.12419724 125.17608033 -16.5 125.1875 C-17.42425781 125.19974609 -18.34851563 125.21199219 -19.30078125 125.22460938 C-24.27586261 125.23528552 -28.33685537 124.96629265 -33 123 C-31.61400866 115.58068882 -29.86233001 108.29655755 -27.9375 101 C-27.66873047 99.96488281 -27.39996094 98.92976563 -27.12304688 97.86328125 C-25.13061255 90.2612251 -25.13061255 90.2612251 -24 88 C-23.34 88.28875 -22.68 88.5775 -22 88.875 C-15.58960115 91.27889957 -8.87240162 93.20698093 -2 92 C1.7394501 90.27956858 4.29258294 88.40059081 6.1640625 84.6953125 C9.33651395 74.46638024 6.3390362 64.39180419 2 55 C0.20398505 51.81678169 -1.77050929 48.89281027 -4 46 C-4.7425 45.01 -5.485 44.02 -6.25 43 C-7.84924803 40.9176123 -7.84924803 40.9176123 -10 40 C-9.45280154 32.27082181 -7.59586433 25.00950134 -5.56152344 17.55859375 C-4.99415793 15.47858248 -4.43778675 13.39584799 -3.8828125 11.3125 C-1.1463676 1.1463676 -1.1463676 1.1463676 0 0 Z " transform="translate(458,204)" style="fill: #010101;"/><path d="M0 0 C3.46725961 1.1557532 3.71790649 1.71152851 5.48046875 4.74609375 C5.92197266 5.50083984 6.36347656 6.25558594 6.81835938 7.03320312 C7.27017578 7.82662109 7.72199219 8.62003906 8.1875 9.4375 C8.65091797 10.22705078 9.11433594 11.01660156 9.59179688 11.83007812 C13 17.71788706 13 17.71788706 13 20 C12.51982422 20.25990723 12.03964844 20.51981445 11.54492188 20.78759766 C-0.666835 27.41330864 -12.71571235 34.28337291 -24.69921875 41.3125 C-32.35014182 45.79905605 -40.03853711 50.22012295 -47.72705078 54.6418457 C-52.61667493 57.45745614 -57.49805999 60.2838557 -62.34765625 63.16796875 C-63.14308838 63.64073242 -63.93852051 64.11349609 -64.75805664 64.60058594 C-66.20885522 65.46572511 -67.65742137 66.33462372 -69.10327148 67.20800781 C-73.78208669 70 -73.78208669 70 -76 70 C-77.70400669 67.07178145 -79.38524739 64.131112 -81.0625 61.1875 C-81.54783203 60.35412109 -82.03316406 59.52074219 -82.53320312 58.66210938 C-82.98759766 57.85966797 -83.44199219 57.05722656 -83.91015625 56.23046875 C-84.33433838 55.49207764 -84.75852051 54.75368652 -85.19555664 53.99291992 C-86 52 -86 52 -85 49 C-82.50433944 47.44517598 -80.0354421 46.05191666 -77.4375 44.6875 C-75.7786002 43.79155341 -74.12111882 42.89297701 -72.46484375 41.9921875 C-71.57651855 41.50975586 -70.68819336 41.02732422 -69.77294922 40.53027344 C-64.96521965 37.87709075 -60.23516149 35.09251059 -55.5 32.3125 C-45.78194505 26.6182172 -36.03955768 20.9682664 -26.27124023 15.3605957 C-21.38243504 12.54961641 -16.50932719 9.72152969 -11.6875 6.796875 C-10.50111938 6.08096191 -10.50111938 6.08096191 -9.29077148 5.35058594 C-7.84997182 4.47729748 -6.41418104 3.59566713 -4.98461914 2.70410156 C-3.36728758 1.72562538 -1.68773211 0.85131506 0 0 Z " transform="translate(529,322)" style="fill: #030302;"/><path d="M0 0 C12.01735457 7.12421231 18.11669361 17.67155858 23.1640625 30.41015625 C24.41776842 37.1345789 24.78947919 44.00804832 22.7890625 50.59765625 C19.76527138 54.49932221 16.69588391 57.60232559 11.67578125 58.4765625 C1.0082332 58.75292385 -5.51410607 55.33082058 -13.1484375 48.09765625 C-21.07255556 39.85039153 -27.33639574 29.9501313 -27.8359375 18.28515625 C-27.48254287 11.47203658 -25.35384211 7.29504735 -20.5859375 2.5390625 C-14.54749557 -2.78986251 -7.22327674 -3.54567237 0 0 Z " transform="translate(442.1484375,238.90234375)" style="fill: #D6C5BA;"/></svg>
