<?xml version="1.0" encoding="UTF-8" standalone="no"?>
<svg
   width="32"
   height="32"
   viewBox="0 0 32 32"
   fill="none"
   class="icon-2xl"
   version="1.1"
   id="svg1"
   sodipodi:docname="pencil.svg"
   inkscape:version="1.4 (e7c3feb100, 2024-10-09)"
   xmlns:inkscape="http://www.inkscape.org/namespaces/inkscape"
   xmlns:sodipodi="http://sodipodi.sourceforge.net/DTD/sodipodi-0.dtd"
   xmlns="http://www.w3.org/2000/svg"
   xmlns:svg="http://www.w3.org/2000/svg">
  <defs
     id="defs1" />
  <sodipodi:namedview
     id="namedview1"
     pagecolor="#ececec"
     bordercolor="#000000"
     borderopacity="0.25"
     inkscape:showpageshadow="2"
     inkscape:pageopacity="0.0"
     inkscape:pagecheckerboard="0"
     inkscape:deskcolor="#d1d1d1"
     inkscape:zoom="14.390625"
     inkscape:cx="18.970684"
     inkscape:cy="17.094463"
     inkscape:window-width="1366"
     inkscape:window-height="761"
     inkscape:window-x="0"
     inkscape:window-y="0"
     inkscape:window-maximized="1"
     inkscape:current-layer="svg1" />
  <path
     style="fill:#ececec;stroke-width:0.0694897"
     d="M 15.044517,31.921502 C 8.5913781,31.557089 2.8918961,27.181587 0.87139009,21.040766 -0.84399816,15.827274 0.15117225,10.280307 3.5678765,6.0108578 5.0149729,4.2025933 6.8502869,2.7351754 8.9641694,1.6962736 10.103232,1.1364631 10.982965,0.80930342 12.110603,0.52616213 18.05673,-0.9668653 24.315551,1.0776922 28.262242,5.8023887 c 1.90369,2.2789608 3.178557,5.1999663 3.563617,8.1650383 0.126662,0.97534 0.14257,2.936738 0.03139,3.870693 -0.748952,6.291658 -5.188119,11.605707 -11.218816,13.429846 -1.817422,0.549727 -3.647018,0.763478 -5.593919,0.653536 z"
     id="path3" />
  <path
     fill-rule="evenodd"
     clip-rule="evenodd"
     d="m 17.275112,8.3106591 c 1.7712,-1.77124 4.643,-1.77124 6.4142,-1e-5 1.7713,1.7712399 1.7713,4.6429799 0,6.4141999 l -0.9998,0.9998 -7.0938,7.0938 c -0.7369,0.7369 -1.68557,1.2251 -2.71351,1.3964 l -4.7355805,0.7893 c -0.31856,0.0531 -0.64314,-0.0509 -0.8715,-0.2793 -0.22837,-0.2283 -0.33238,-0.5529 -0.27929,-0.8715 l 0.78926,-4.7356 c 0.17132,-1.0279 0.65955,-1.9766 1.39644,-2.7135 z m -0.2929,3.1213099 -6.38647,6.38648 c -0.44213,0.4421 -0.7350705,1.0114 -0.8378605,1.6281 l -0.55911,3.3547 3.3546305,-0.5591 c 0.61676,-0.1028 1.186,-0.3958 1.62811,-0.8379 l 6.3865,-6.3865 z m 5,2.17158 -3.5858,-3.58579 0.2929,-0.2928899 c 0.9902,-0.99019 2.5956,-0.99019 3.5858,0 0.9902,0.9901899 0.9902,2.5955999 0,3.5857899 z"
     fill="#000000"
     id="path1" />
</svg>
