<?xml version="1.0" encoding="UTF-8"?>
<svg id="svg" version="1.1" xmlns="http://www.w3.org/2000/svg" style="display: block;" viewBox="0 0 300 300"><path d="M0 0 C1.71627128 -0.00407336 3.43253994 -0.00941949 5.14880371 -0.01593018 C9.77691676 -0.02951879 14.40482748 -0.02434033 19.03294373 -0.01479292 C23.89599112 -0.00715223 28.75902218 -0.0142541 33.62207031 -0.01895142 C41.78583865 -0.02439619 49.94952534 -0.017251 58.11328125 -0.00292969 C67.52687245 0.01339434 76.94026866 0.00810493 86.35385513 -0.0084089 C94.46293929 -0.02206029 102.57196503 -0.02392562 110.68105698 -0.0160929 C115.51254213 -0.01143641 120.3439359 -0.01073543 125.17541504 -0.02070236 C129.71951847 -0.02942312 134.26337259 -0.02325764 138.80744934 -0.00601959 C140.46657397 -0.00208187 142.1257199 -0.00314173 143.78483582 -0.00980759 C165.26269321 -0.08808716 182.40578038 6.30129739 198.484375 20.95068359 C199.20625 21.75505859 199.928125 22.55943359 200.671875 23.38818359 C201.13851563 23.89736328 201.60515625 24.40654297 202.0859375 24.93115234 C216.49495055 41.0766362 221.14530326 58.49910618 221.06005859 79.71630859 C221.06413195 81.43257988 221.06947809 83.14884854 221.07598877 84.8651123 C221.08957739 89.49322535 221.08439892 94.12113608 221.07485151 98.74925232 C221.06721082 103.61229971 221.0743127 108.47533077 221.07901001 113.33837891 C221.08445479 121.50214724 221.07730959 129.66583393 221.06298828 137.82958984 C221.04666425 147.24318104 221.05195367 156.65657725 221.0684675 166.07016373 C221.08211888 174.17924788 221.08398422 182.28827363 221.07615149 190.39736557 C221.071495 195.22885073 221.07079403 200.06024449 221.08076096 204.89172363 C221.08948171 209.43582707 221.08331623 213.97968119 221.06607819 218.52375793 C221.06214046 220.18288257 221.06320033 221.84202849 221.06986618 223.50114441 C221.14814575 244.9790018 214.75876121 262.12208898 200.109375 278.20068359 C199.305 278.92255859 198.500625 279.64443359 197.671875 280.38818359 C197.16269531 280.85482422 196.65351563 281.32146484 196.12890625 281.80224609 C179.9834224 296.21125914 162.56095242 300.86161186 141.34375 300.77636719 C139.62747872 300.78044054 137.91121006 300.78578668 136.19494629 300.79229736 C131.56683324 300.80588598 126.93892252 300.80070751 122.31080627 300.79116011 C117.44775888 300.78351941 112.58472782 300.79062129 107.72167969 300.7953186 C99.55791135 300.80076338 91.39422466 300.79361819 83.23046875 300.77929688 C73.81687755 300.76297285 64.40348134 300.76826226 54.98989487 300.78477609 C46.88081071 300.79842748 38.77178497 300.80029281 30.66269302 300.79246008 C25.83120787 300.7878036 20.9998141 300.78710262 16.16833496 300.79706955 C11.62423153 300.8057903 7.08037741 300.79962483 2.53630066 300.78238678 C0.87717603 300.77844906 -0.7819699 300.77950892 -2.44108582 300.78617477 C-23.91894321 300.86445435 -41.06203038 294.4750698 -57.140625 279.82568359 C-57.8625 279.02130859 -58.584375 278.21693359 -59.328125 277.38818359 C-59.79476562 276.87900391 -60.26140625 276.36982422 -60.7421875 275.84521484 C-75.15120055 259.69973099 -79.80155326 242.27726101 -79.71630859 221.06005859 C-79.72038195 219.34378731 -79.72572809 217.62751865 -79.73223877 215.91125488 C-79.74582739 211.28314183 -79.74064892 206.65523111 -79.73110151 202.02711487 C-79.72346082 197.16406747 -79.7305627 192.30103642 -79.73526001 187.43798828 C-79.74070479 179.27421995 -79.73355959 171.11053326 -79.71923828 162.94677734 C-79.70291425 153.53318615 -79.70820367 144.11978994 -79.7247175 134.70620346 C-79.73836888 126.59711931 -79.74023422 118.48809356 -79.73240149 110.37900162 C-79.727745 105.54751646 -79.72704403 100.7161227 -79.73701096 95.88464355 C-79.74573171 91.34054012 -79.73956623 86.796686 -79.72232819 82.25260925 C-79.71839046 80.59348462 -79.71945033 78.93433869 -79.72611618 77.27522278 C-79.80439575 55.79736539 -73.41501121 38.65427821 -58.765625 22.57568359 C-57.96125 21.85380859 -57.156875 21.13193359 -56.328125 20.38818359 C-55.81894531 19.92154297 -55.30976562 19.45490234 -54.78515625 18.97412109 C-38.6396724 4.56510804 -21.21720242 -0.08524467 0 0 Z " transform="translate(79.328125,-0.38818359375)" style="fill: #FAFAC5;"/><path d="M0 0 C4.2488971 1.41629903 7.07182651 3.89829635 10.4375 6.75 C29.26579092 22.14723188 54.46886871 23.96027671 77.80761719 21.73193359 C93.45855073 19.62105797 107.00653544 13.21065226 119 3 C123.10577667 -0.26356607 126.51763866 -0.45626778 131.625 -0.2890625 C134.7531708 0.09166881 136.62857254 0.92500098 139 3 C142.53375441 8.42683712 141.84935456 15.79536759 141 22 C136.68501806 37.58643667 126.5365863 47.95605016 113 56 C87.52783939 69.96860421 56.44146465 70.92179394 28.91455078 63.43261719 C25.1262172 62.25366253 21.56993396 60.7202769 18 59 C16.35837891 58.22849609 16.35837891 58.22849609 14.68359375 57.44140625 C0.75521485 50.45300757 -8.88452811 40.81038559 -14.4375 26.125 C-16.5319192 19.20077792 -17.92416631 10.95491909 -14.66015625 4.24609375 C-10.71116972 -1.09665273 -6.07406653 -0.58349301 0 0 Z " transform="translate(88,175)" style="fill: #FE191C;"/><path d="M0 0 C9.11995427 5.09686613 15.58758994 14.02973593 18.43701172 24.03613281 C22.2261394 39.46981436 20.77804731 55.46964317 13.125 69.4375 C8.66453301 76.34729143 2.86120677 81.68064886 -5.125 84.0625 C-12.39517316 84.99761285 -18.32623267 83.63012437 -24.37890625 79.5390625 C-32.46115524 73.05685265 -38.40757022 63.3922411 -39.91015625 53.04296875 C-41.08817942 36.70057454 -40.52117559 21.66117566 -30.125 8.0625 C-21.82650454 -0.87824155 -11.65283453 -5.17307094 0 0 Z " transform="translate(204.125,84.9375)" style="fill: #F7F8FA;"/><path d="M0 0 C9.94990258 5.56069909 15.72875622 15.04593378 18.9921875 25.71484375 C20.1646644 30.65417757 20.16850922 35.50817917 20.125 40.5625 C20.13660156 41.91021484 20.13660156 41.91021484 20.1484375 43.28515625 C20.11391079 55.14508072 16.51839939 67.16700733 8.125 75.87890625 C2.67863715 80.974234 -2.57592231 84.06889269 -10.125 84.4375 C-18.53118646 84.02704168 -24.47087723 80.1057237 -30.125 74.0625 C-39.94014284 61.74801044 -41.11797326 46.27118765 -39.88671875 31.1328125 C-38.45143613 21.12932756 -33.76151148 10.8646183 -26.125 4.0625 C-17.91259118 -1.92864777 -9.68584882 -4.35638641 0 0 Z " transform="translate(118.125,84.9375)" style="fill: #F8FAFB;"/><path d="M0 0 C4.05949084 2.27234447 6.60375757 5.14501515 8.6875 9.3125 C10.0075 8.9825 11.3275 8.6525 12.6875 8.3125 C13.32365234 9.10914063 13.32365234 9.10914063 13.97265625 9.921875 C19.2365424 16.26167634 24.31683395 20.58202889 32.765625 21.55078125 C38.01839264 21.7302823 41.43222698 20.87118031 45.9609375 18.1875 C47.6875 17.3125 47.6875 17.3125 50.6875 17.3125 C51.6775 20.9425 52.6675 24.5725 53.6875 28.3125 C29.43563475 47.2289549 6.2163546 54.03336058 -24.73925781 51.08105469 C-40.9801722 48.98712358 -55.49792566 41.46704225 -67.3125 30.3125 C-67.00328116 28.85346742 -66.69001201 27.39529278 -66.375 25.9375 C-66.20097656 25.12539062 -66.02695313 24.31328125 -65.84765625 23.4765625 C-65.3125 21.3125 -65.3125 21.3125 -64.3125 19.3125 C-63.4771875 19.5290625 -63.4771875 19.5290625 -62.625 19.75 C-53.17427868 22.0488241 -45.96112925 22.14390038 -37.3125 17.3125 C-33.41505252 14.16680737 -30.12949624 10.45514154 -27.3125 6.3125 C-26.3225 6.6425 -25.3325 6.9725 -24.3125 7.3125 C-24.10625 6.735 -23.9 6.1575 -23.6875 5.5625 C-18.75093801 -2.51551052 -8.01785507 -3.72364805 0 0 Z " transform="translate(159.3125,146.6875)" style="fill: #FAF7C3;"/><path d="M0 0 C3.5 1.4375 3.5 1.4375 6 3 C8.68386637 3.95233968 10.34546062 3.98006958 13.25 3.8125 C18.57041431 4.07852072 22.72243572 5.79554272 26.58203125 9.53125 C29.8506991 13.37452517 31.13342618 15.66016709 31.0625 20.625 C31.05347656 21.44226563 31.04445313 22.25953125 31.03515625 23.1015625 C31.02355469 23.72804688 31.01195312 24.35453125 31 25 C32.051875 25.0928125 32.051875 25.0928125 33.125 25.1875 C38.17014405 26.61330158 41.09616298 29.61411657 43.875 33.875 C45.65319019 38.81441719 45.73128691 42.37845077 43.5625 47.1875 C43.046875 48.115625 42.53125 49.04375 42 50 C40.89736581 53.06645923 40.89736581 53.06645923 42 56 C42.80061586 64.69899923 42.80061586 64.69899923 40.5 68.4375 C38.370881 72.07474496 38.86625257 75.24533599 39.08984375 79.37890625 C38.9948367 82.15063375 38.4202284 83.65137327 37 86 C36.34 86 35.68 86 35 86 C34.82726562 85.16082031 34.65453125 84.32164063 34.4765625 83.45703125 C29.50525897 62.1807643 18.8570506 44.78221493 4 29 C3.46117187 28.39671875 2.92234375 27.7934375 2.3671875 27.171875 C-7.66817428 16.38007892 -20.99962698 9.51592546 -34 3 C-32 1 -32 1 -30.01171875 0.953125 C-29.24472656 1.05109375 -28.47773438 1.1490625 -27.6875 1.25 C-26.88054687 1.35183594 -26.07359375 1.45367187 -25.2421875 1.55859375 C-23 2 -23 2 -20.3125 3.3125 C-19.1678125 3.6528125 -19.1678125 3.6528125 -18 4 C-16.63623628 3.00212411 -15.27495326 2.0004512 -13.93359375 0.97265625 C-9.67793788 -1.16806761 -4.61114981 -0.54472374 0 0 Z " transform="translate(233,42)" style="fill: #FE191C;"/><path d="M0 0 C2.98969243 1.06056368 5.27810241 2.3249861 8 4 C8.99 3.34 9.98 2.68 11 2 C13.15625 1.515625 13.15625 1.515625 15.5 1.25 C16.66015625 1.10304687 16.66015625 1.10304687 17.84375 0.953125 C20 1 20 1 23 3 C22.49251221 3.25056152 21.98502441 3.50112305 21.4621582 3.75927734 C-8.75849865 18.81328127 -31.70554501 40.88688524 -42.82226562 73.40527344 C-44.08899692 77.56050891 -45.12389042 81.7436766 -46 86 C-46.66 86 -47.32 86 -48 86 C-49.84731531 82.5362838 -50.06917624 79.83578604 -49.9375 76 C-49.80990722 72.03833707 -49.80990722 72.03833707 -51.5 68.5 C-53.85346578 64.57755704 -53.37784046 60.46869006 -53 56 C-52.78988281 55.31679687 -52.57976563 54.63359375 -52.36328125 53.9296875 C-51.87898116 51.35716876 -52.60083913 50.39726596 -53.9375 48.1875 C-56.03426183 44.22124772 -56.73115017 41.54937885 -56 37 C-53.53175542 31.42281756 -50.39129875 27.81285152 -45 25 C-44.01 25 -43.02 25 -42 25 C-42.04640625 24.41992188 -42.0928125 23.83984375 -42.140625 23.2421875 C-42.40351909 17.55240823 -41.78406373 14.5198539 -38 10 C-37.38125 9.2575 -36.7625 8.515 -36.125 7.75 C-31.98907609 4.34394501 -28.19193736 3.92231175 -23 4.125 C-19.24267742 4.22534393 -18.32706932 4.22752649 -15.125 2 C-10.29985905 -1.08809021 -5.57453905 -0.75685648 0 0 Z " transform="translate(79,42)" style="fill: #FE191D;"/><path d="M0 0 C0.66 0.99 1.32 1.98 2 3 C2.7425 2.67 3.485 2.34 4.25 2 C12.59306351 -0.22481694 20.17180347 0.06600118 27.7421875 4.38671875 C33.92030924 8.80118982 38.4241524 14.48987943 40 22 C40.89376829 29.16273463 39.63516907 35.18667332 35.5234375 41.13671875 C31.03489554 46.68078542 26.33388585 49.66649666 19.5625 51.75 C15.70795499 52.12605317 11.86917756 52.07586623 8 52 C7.34 53.32 6.68 54.64 6 56 C5.93941406 55.32453125 5.87882812 54.6490625 5.81640625 53.953125 C5.73261719 53.06109375 5.64882812 52.1690625 5.5625 51.25 C5.48128906 50.36828125 5.40007812 49.4865625 5.31640625 48.578125 C5.0348257 46.283765 4.73959237 44.18938933 4 42 C0.82150721 40.11276991 -2.02507661 39.93175509 -5.625 39.75 C-7.9765625 39.52734375 -7.9765625 39.52734375 -10 39 C-12 36.3125 -12 36.3125 -13 33 C-13.37125 32.05125 -13.7425 31.1025 -14.125 30.125 C-13.95061722 25.7654306 -11.85160081 24.33198548 -8.91796875 21.26953125 C-3.87286027 15.29965747 -1.56495037 7.54021541 0 0 Z " transform="translate(223,136)" style="fill: #FBDFD4;"/><path d="M0 0 C3.0991823 1.79901165 3.50602451 3.46867372 4.65625 6.82421875 C7.87097064 15.24516936 12.60930691 22.25881594 19.28125 28.32421875 C17.96125 31.95421875 16.64125 35.58421875 15.28125 39.32421875 C13.96125 38.99421875 12.64125 38.66421875 11.28125 38.32421875 C4.60662689 37.59824488 4.60662689 37.59824488 -1.28125 40.19921875 C-3.34688686 43.2527689 -3.91729307 45.30964945 -4.28125 48.94921875 C-4.40693359 50.17511719 -4.40693359 50.17511719 -4.53515625 51.42578125 C-4.59574219 52.05226562 -4.65632813 52.67875 -4.71875 53.32421875 C-5.04875 52.33421875 -5.37875 51.34421875 -5.71875 50.32421875 C-6.40839844 50.31003906 -7.09804687 50.29585937 -7.80859375 50.28125 C-16.59394061 49.83535448 -23.02022981 47.53291856 -29.09375 41.01171875 C-34.41964078 34.08361013 -35.29505157 28.12741941 -34.3515625 19.4453125 C-32.80537138 11.81934516 -27.97622008 6.68137253 -21.71875 2.32421875 C-15.08880126 -1.5757511 -7.39419493 -1.83792489 0 0 Z " transform="translate(76.71875,137.67578125)" style="fill: #FBDFD4;"/><path d="M0 0 C9.94990258 5.56069909 15.72875622 15.04593378 18.9921875 25.71484375 C20.1646644 30.65417757 20.16850922 35.50817917 20.125 40.5625 C20.13660156 41.91021484 20.13660156 41.91021484 20.1484375 43.28515625 C20.11391079 55.14508072 16.51839939 67.16700733 8.125 75.87890625 C2.67863715 80.974234 -2.57592231 84.06889269 -10.125 84.4375 C-18.53118646 84.02704168 -24.47087723 80.1057237 -30.125 74.0625 C-39.94014284 61.74801044 -41.11797326 46.27118765 -39.88671875 31.1328125 C-38.45143613 21.12932756 -33.76151148 10.8646183 -26.125 4.0625 C-17.91259118 -1.92864777 -9.68584882 -4.35638641 0 0 Z M-24.125 14.0625 C-32.5413825 25.64674139 -33.45153542 37.12720538 -32.125 51.0625 C-30.46347604 59.85347224 -26.09720607 67.51571557 -18.80859375 72.71484375 C-14.09540694 75.08172795 -9.26973328 74.68462128 -4.125 74.0625 C3.94246443 70.24878954 7.92020305 63.12690214 10.875 55.0625 C14.59280796 43.68254301 14.04534875 31.89636922 8.875 21.0625 C5.4610102 15.36628141 1.34591586 10.21947195 -5.125 8.0625 C-13.16209394 7.03676426 -18.58712143 7.93084452 -24.125 14.0625 Z " transform="translate(118.125,84.9375)" style="fill: #3FA4EF;"/><path d="M0 0 C9.11995427 5.09686613 15.58758994 14.02973593 18.43701172 24.03613281 C22.2261394 39.46981436 20.77804731 55.46964317 13.125 69.4375 C8.66453301 76.34729143 2.86120677 81.68064886 -5.125 84.0625 C-12.39517316 84.99761285 -18.32623267 83.63012437 -24.37890625 79.5390625 C-32.46115524 73.05685265 -38.40757022 63.3922411 -39.91015625 53.04296875 C-41.08817942 36.70057454 -40.52117559 21.66117566 -30.125 8.0625 C-21.82650454 -0.87824155 -11.65283453 -5.17307094 0 0 Z M-25.84375 16.3359375 C-33.114048 27.63341037 -34.57667604 38.55757152 -32 51.625 C-29.81358765 60.18760091 -25.98235379 68.01159228 -18.4609375 73.0546875 C-13.71066699 75.10413531 -9.14366621 75.05000036 -4.125 74.0625 C3.71169799 70.6814497 7.64380633 63.18161605 10.91015625 55.6875 C14.93478952 44.30621148 13.73170324 31.97579787 8.875 21.0625 C5.54256418 15.4204552 1.36866128 9.99168481 -5.125 8.0625 C-14.41360531 6.48886822 -20.20941173 8.8832446 -25.84375 16.3359375 Z " transform="translate(204.125,84.9375)" style="fill: #3FA4EF;"/><path d="M0 0 C4.08683464 0.43272367 7.13662215 2.941354 10.4375 5.1875 C30.21007324 18.22738362 53.25956941 23.61469741 76.72998047 18.92382812 C90.35385345 15.74226248 102.27090233 10.15646114 113.328125 1.625 C116 0 116 0 118.359375 0.25 C118.90078125 0.4975 119.4421875 0.745 120 1 C120.41434514 6.99764588 117.77214052 9.62885004 114 14 C113.41992188 14.67546875 112.83984375 15.3509375 112.2421875 16.046875 C101.14195648 28.02955117 85.07349148 34.10024805 68.99536133 35.20678711 C65.88967916 35.30261845 62.79459352 35.32902837 59.6875 35.3125 C58.59026611 35.30758545 57.49303223 35.3026709 56.36254883 35.29760742 C39.96385959 35.06103537 25.25941461 30.95092344 12 21 C10.77023438 20.08734375 10.77023438 20.08734375 9.515625 19.15625 C6.80253348 16.83074298 4.80482957 14.43744279 2.6875 11.5625 C1.99011719 10.63566406 1.29273437 9.70882812 0.57421875 8.75390625 C-1.10519723 5.81597011 -1.43898796 4.31874897 -1 1 C-0.67 0.67 -0.34 0.34 0 0 Z " transform="translate(91,193)" style="fill: #FEF6F6;"/><path d="M0 0 C4.03977721 2.8214317 6.38400407 6.51784236 7.72265625 11.203125 C8.39845389 17.17267085 6.99717601 21.30734464 3.72265625 26.203125 C-0.53176715 30.4575484 -4.77687966 31.97581008 -10.71484375 32.515625 C-16.90416414 31.97270216 -21.83720909 29.51992258 -26.27734375 25.203125 C-29.26480094 20.67043133 -30.02189441 16.53907139 -29.27734375 11.203125 C-27.20934039 4.42466956 -24.03240028 1.3343733 -17.96484375 -2.109375 C-11.41685761 -3.78444122 -5.91392151 -3.33907298 0 0 Z " transform="translate(161.27734375,147.796875)" style="fill: #FE181B;"/><path d="M0 0 C3.48949331 1.38125777 4.56965663 2.90645704 6.1875 6.25 C10.72053805 17.05955228 10.17352815 29.28089714 6 40.1875 C4.49988637 42.56714454 3.03071531 44.21166888 1 46.1875 C-1.25 46.0625 -1.25 46.0625 -4 45.1875 C-9.67132381 38.54394926 -10.37327736 30.63191238 -10.3125 22.25 C-10.30621582 21.06639893 -10.30621582 21.06639893 -10.29980469 19.85888672 C-10.16417154 12.87666528 -9.20272697 7.3776563 -5.1875 1.5625 C-3 0.1875 -3 0.1875 0 0 Z " transform="translate(109,103.8125)" style="fill: #191A1C;"/><path d="M0 0 C3.90958001 1.66157151 5.60364763 4.41436822 7.58984375 8.06640625 C8.9689342 12.60615894 8.86867873 17.03116977 8.875 21.75 C8.89949219 22.69294922 8.92398438 23.63589844 8.94921875 24.60742188 C8.97681347 31.2991409 7.99576818 37.24916698 4.5 43.0625 C1.09129231 46.09467163 1.09129231 46.09467163 -1.58203125 45.94921875 C-3.8506597 44.90038238 -4.76010331 43.91478139 -6.1875 41.875 C-6.60386719 41.30394531 -7.02023438 40.73289063 -7.44921875 40.14453125 C-10.12849001 34.83578932 -9.71320806 28.56772576 -9.75 22.75 C-9.770625 21.94626953 -9.79125 21.14253906 -9.8125 20.31445312 C-9.8568588 13.42220399 -8.68785375 7.12549525 -4.625 1.4375 C-2.5 0.0625 -2.5 0.0625 0 0 Z " transform="translate(194.5,103.9375)" style="fill: #18191B;"/><path d="M0 0 C3.23327365 2.44467032 5.86211644 5.21526734 7.5625 8.9375 C7.2325 9.9275 6.9025 10.9175 6.5625 11.9375 C6.08039063 11.51597656 5.59828125 11.09445313 5.1015625 10.66015625 C4.15410156 9.83837891 4.15410156 9.83837891 3.1875 9 C2.24777344 8.18208984 2.24777344 8.18208984 1.2890625 7.34765625 C-2.58845371 4.18072559 -6.46840033 4.49044305 -11.3203125 4.51953125 C-16.2134216 5.17562483 -19.0017498 7.55130389 -22.4375 10.9375 C-23.2625 11.72125 -24.0875 12.505 -24.9375 13.3125 C-25.4325 13.84875 -25.9275 14.385 -26.4375 14.9375 C-25.71543972 8.79998758 -22.23798937 3.67258088 -17.40625 -0.1484375 C-12.02156117 -2.6484716 -5.4897911 -1.69684452 0 0 Z " transform="translate(117.4375,64.0625)" style="fill: #222422;"/><path d="M0 0 C4.43683986 2.13919065 7.33750581 4.85834238 10 9 C10.75 12.3125 10.75 12.3125 11 15 C10.31164062 14.40251953 10.31164062 14.40251953 9.609375 13.79296875 C8.68898437 12.99826172 8.68898437 12.99826172 7.75 12.1875 C7.14671875 11.66542969 6.5434375 11.14335938 5.921875 10.60546875 C5.28765625 10.07566406 4.6534375 9.54585937 4 9 C3.38382813 8.44828125 2.76765625 7.8965625 2.1328125 7.328125 C-2.0912134 4.6977792 -7.21486691 5.40987635 -12 6 C-15.49726521 7.63452093 -15.49726521 7.63452093 -18 10 C-18.78375 10.5775 -19.5675 11.155 -20.375 11.75 C-21.179375 12.36875 -21.179375 12.36875 -22 13 C-21.56562648 8.07710011 -19.356381 5.51249175 -16 2 C-11.14811318 -1.10478657 -5.54228772 -0.60177655 0 0 Z " transform="translate(198,63)" style="fill: #202120;"/><path d="M0 0 C0.66 0 1.32 0 2 0 C1.26352106 3.13972601 0.43268444 6.10243596 -1 9 C-3.8125 10.125 -3.8125 10.125 -7 11 C-9.23949992 13.15316999 -11.13160804 15.52206173 -13 18 C-16 14.25 -16 14.25 -16 12 C-14.68 12 -13.36 12 -12 12 C-12 10.68 -12 9.36 -12 8 C-11.01 8.33 -10.02 8.66 -9 9 C-8.67 8.01 -8.34 7.02 -8 6 C-7.34 5.67 -6.68 5.34 -6 5 C-6.33 4.34 -6.66 3.68 -7 3 C-5.02 3 -3.04 3 -1 3 C-0.67 2.01 -0.34 1.02 0 0 Z " transform="translate(225,200)" style="fill: #FC2225;"/><path d="M0 0 C0.33 1.32 0.66 2.64 1 4 C0.01 4 -0.98 4 -2 4 C-2.226875 4.556875 -2.45375 5.11375 -2.6875 5.6875 C-4.3703574 8.65253447 -6.53621374 10.65353689 -9 13 C-10.1446875 14.1446875 -10.1446875 14.1446875 -11.3125 15.3125 C-11.869375 15.869375 -12.42625 16.42625 -13 17 C-13.66 14.03 -14.32 11.06 -15 8 C-13.68 8 -12.36 8 -11 8 C-9.2488427 6.5833253 -9.2488427 6.5833253 -8 5 C-8.33 4.34 -8.66 3.68 -9 3 C-7.5459375 2.5359375 -7.5459375 2.5359375 -6.0625 2.0625 C-0.11764706 0 -0.11764706 0 0 0 Z " transform="translate(87,185)" style="fill: #FC2225;"/><path d="M0 0 C1.32 0.66 2.64 1.32 4 2 C3.67 2.99 3.34 3.98 3 5 C2.01 5 1.02 5 0 5 C0 5.99 0 6.98 0 8 C-0.99 8 -1.98 8 -3 8 C-3.33 8.99 -3.66 9.98 -4 11 C-4.99 11.495 -4.99 11.495 -6 12 C-6.33 12.66 -6.66 13.32 -7 14 C-8.65 12.68 -10.3 11.36 -12 10 C-11.34 9.34 -10.68 8.68 -10 8 C-9.67 8.33 -9.34 8.66 -9 9 C-8.67 8.34 -8.34 7.68 -8 7 C-7.01 6.67 -6.02 6.34 -5 6 C-5.33 5.34 -5.66 4.68 -6 4 C-4.35 3.67 -2.7 3.34 -1 3 C-0.67 2.01 -0.34 1.02 0 0 Z " transform="translate(232,46)" style="fill: #FC2225;"/><path d="M0 0 C2.4294516 3.6441774 2.16179575 5.71241272 2 10 C1.67 8.68 1.34 7.36 1 6 C0.34 6 -0.32 6 -1 6 C-1.33 6.99 -1.66 7.98 -2 9 C-3.65 9.33 -5.3 9.66 -7 10 C-7.33 10.99 -7.66 11.98 -8 13 C-10 10 -10 10 -10 7 C-9.01 7 -8.02 7 -7 7 C-6.67 5.35 -6.34 3.7 -6 2 C-5.01 2.33 -4.02 2.66 -3 3 C-2.01 2.01 -1.02 1.02 0 0 Z " transform="translate(167,156)" style="fill: #FC2628;"/><path d="M0 0 C0 3 0 3 -1.5390625 4.71875 C-5.52497244 8.12244837 -9.16525597 10.94523379 -14 13 C-13.67 11.68 -13.34 10.36 -13 9 C-12.34 9 -11.68 9 -11 9 C-10.67 8.34 -10.34 7.68 -10 7 C-10.89163577 4.88316159 -10.89163577 4.88316159 -12 3 C-10.37604003 2.49663233 -8.75079459 1.99741024 -7.125 1.5 C-6.22007812 1.2215625 -5.31515625 0.943125 -4.3828125 0.65625 C-2 0 -2 0 0 0 Z " transform="translate(186,192)" style="fill: #FB2728;"/><path d="M0 0 C1.32 0 2.64 0 4 0 C4.33 0.99 4.66 1.98 5 3 C3.68 3.33 2.36 3.66 1 4 C0.67 5.32 0.34 6.64 0 8 C-0.66 8 -1.32 8 -2 8 C-2.33 8.99 -2.66 9.98 -3 11 C-4.32 10.67 -5.64 10.34 -7 10 C-6.42415568 7.61435923 -5.77772405 5.33317216 -5 3 C-3.35 3 -1.7 3 0 3 C0 2.01 0 1.02 0 0 Z " transform="translate(122,197)" style="fill: #FC2125;"/><path d="M0 0 C0.66 0.33 1.32 0.66 2 1 C2.625 3.0625 2.625 3.0625 3 5 C2.34 5 1.68 5 1 5 C0.67 5.99 0.34 6.98 0 8 C-1.65 8.33 -3.3 8.66 -5 9 C-5.33 9.99 -5.66 10.98 -6 12 C-8 9 -8 9 -8 6 C-6.68 6.33 -5.36 6.66 -4 7 C-4 5.35 -4 3.7 -4 2 C-2.125 0.9375 -2.125 0.9375 0 0 Z " transform="translate(113,108)" style="fill: #232426;"/><path d="M0 0 C0.99 0 1.98 0 3 0 C3.33 1.32 3.66 2.64 4 4 C3.01 4 2.02 4 1 4 C1 5.32 1 6.64 1 8 C-1.64 7.67 -4.28 7.34 -7 7 C-6.34 6.34 -5.68 5.68 -5 5 C-5.33 4.34 -5.66 3.68 -6 3 C-4.02 3 -2.04 3 0 3 C0 2.01 0 1.02 0 0 Z " transform="translate(136,234)" style="fill: #FC2326;"/><path d="M0 0 C1.32 1.32 2.64 2.64 4 4 C3.01 4.33 2.02 4.66 1 5 C0.67 5.99 0.34 6.98 0 8 C-2.475 7.01 -2.475 7.01 -5 6 C-4.75 4.125 -4.75 4.125 -4 2 C-1.9375 0.75 -1.9375 0.75 0 0 Z " transform="translate(92,177)" style="fill: #FB2326;"/><path d="M0 0 C2.475 0.99 2.475 0.99 5 2 C4.34 3.32 3.68 4.64 3 6 C2.34 6 1.68 6 1 6 C1 6.66 1 7.32 1 8 C-0.9375 7.6875 -0.9375 7.6875 -3 7 C-3.33 6.01 -3.66 5.02 -4 4 C-3.01 4 -2.02 4 -1 4 C-0.67 2.68 -0.34 1.36 0 0 Z " transform="translate(78,42)" style="fill: #FB2225;"/><path d="M0 0 C1.125 1.75 1.125 1.75 2 4 C1.125 6.25 1.125 6.25 0 8 C-0.99 8 -1.98 8 -3 8 C-3 8.99 -3 9.98 -3 11 C-4.65 11 -6.3 11 -8 11 C-6.68 10.67 -5.36 10.34 -4 10 C-4 9.34 -4 8.68 -4 8 C-4.66 7.67 -5.32 7.34 -6 7 C-5.34 7 -4.68 7 -4 7 C-3.67 6.01 -3.34 5.02 -3 4 C-2.67 4.66 -2.34 5.32 -2 6 C-1.34 6 -0.68 6 0 6 C-0.7425 5.319375 -0.7425 5.319375 -1.5 4.625 C-3 3 -3 3 -3 1 C-2.01 0.67 -1.02 0.34 0 0 Z " transform="translate(35,83)" style="fill: #FC2326;"/><path d="M0 0 C0.33 0 0.66 0 1 0 C1 2.97 1 5.94 1 9 C1.99 9 2.98 9 4 9 C4 9.66 4 10.32 4 11 C3.01 11 2.02 11 1 11 C1 11.99 1 12.98 1 14 C-1 13 -1 13 -3 11 C-2.67 10.01 -2.34 9.02 -2 8 C-1.67 8.33 -1.34 8.66 -1 9 C-0.67 6.03 -0.34 3.06 0 0 Z " transform="translate(263,58)" style="fill: #FC3031;"/><path d="M0 0 C0.99 1.32 1.98 2.64 3 4 C0.69 4.66 -1.62 5.32 -4 6 C-4 4.35 -4 2.7 -4 1 C-2.68 0.67 -1.36 0.34 0 0 Z " transform="translate(192,230)" style="fill: #FB2628;"/><path d="M0 0 C1 3 1 3 -0.3125 5.6875 C-0.869375 6.450625 -1.42625 7.21375 -2 8 C-2.66 8 -3.32 8 -4 8 C-4.33 6.35 -4.66 4.7 -5 3 C-4.01 3 -3.02 3 -2 3 C-1.34 2.01 -0.68 1.02 0 0 Z " transform="translate(274,105)" style="fill: #FC2326;"/></svg>